<?xml version="1.0" standalone="no"?>
<!DOCTYPE svg PUBLIC "-//W3C//DTD SVG 1.1//EN" "http://www.w3.org/Graphics/SVG/1.1/DTD/svg11.dtd" >
<svg xmlns="http://www.w3.org/2000/svg">
<metadata>Generated by IcoMoon</metadata>
<defs>
<font id="iw_e4t4ikg0" horiz-adv-x="1024">
<font-face font-family="iw_e4t4ikg0" units-per-em="1024" ascent="960" descent="-64" />
<missing-glyph horiz-adv-x="1024" />
<glyph unicode="&#x20;" d="" horiz-adv-x="512" />
<glyph unicode="&#xe000;" d="M853.342 1024h-682.656c-93.874 0-170.686-76.81-170.686-170.69v-682.622c0-93.938 76.812-170.688 170.686-170.688h682.656c93.876 0 170.658 76.75 170.658 170.69v682.62c0 93.88-76.782 170.69-170.658 170.69zM853.342 896c7.988 0 15.546-2.334 22.02-6.342l-363.362-300.404-363.354 300.4c6.478 4.01 14.044 6.346 22.04 6.346h682.656zM170.686 128c-1.924 0-3.82 0.146-5.684 0.408l225.626 312.966-29.256 29.254-233.372-233.37v611.138l384-464.396 384 464.394v-611.136l-233.372 233.37-29.254-29.254 225.628-312.968c-1.858-0.26-3.746-0.406-5.662-0.406h-682.654z" />
<glyph unicode="&#xe004;" d="M539.08 201.227q0 12.923-2.769 24.923t-5.847 22.153-10.769 21.23-12.923 18.77-16.308 18.154-16.923 15.692-19.693 15.692-19.077 14.154-20.308 14.154-18.77 12.923q-10.461 1.231-30.769 1.231-33.231 0-65.23-4.308t-66.461-15.385-60.308-28.308-42.462-46.154-16.616-65.846q0-41.846 21.846-74.77t57.231-51.692 74.154-28 78.153-9.23q36.307 0 69.231 7.692t61.847 24 45.846 45.231 16.923 67.692zM465.236 731.689q0 36.923-10.154 78.461t-28.923 80.307-51.692 64-73.539 25.231q-57.231 0-88.616-42.462t-31.385-101.539q0-28.923 7.076-60.923t21.846-64 34.462-57.539 47.999-41.538 59.693-16q59.693 0 86.462 37.23t26.769 98.769zM384.619 1023.996h268.923l-83.077-48.615h-83.077q43.692-27.692 67.692-77.538t24-103.999q0-45.539-14.154-80.923t-34.462-56.923-40.615-39.692-34.462-37.538-14.154-41.538q0-16 10.154-31.385t26.461-29.539 36-29.539 39.384-34.154 36-40.615 26.461-52.307 10.154-65.538q0-98.462-86.154-173.538-93.538-80.615-258.461-80.615-36.307 0-73.539 6.154t-75.077 20.616-66.769 35.692-47.385 54.769-18.462 74.77q0 37.538 22.769 83.077 19.693 39.384 59.077 68t89.231 43.692 95.384 22.153 92.307 8.307q-39.384 51.077-39.384 91.692 0 7.384 1.231 14.462t3.077 12 4.923 13.231 4.308 13.231q-24.615-3.077-43.077-3.077-91.692 0-157.231 60.308t-65.538 151.384q0 86.154 58.462 154.154t144 87.077q57.846 12.308 115.077 12.308zM1024.003 866.457v-78.769h-157.539v-157.539h-78.769v157.539h-157.539v78.769h157.539v157.539h78.769v-157.539h157.539z" />
<glyph unicode="&#xe009;" d="M592.591 0h-191.87v512h-128v176.45l128 0.058-0.208 103.952c0 143.952 39.034 231.54 208.598 231.54h141.176v-176.484h-88.23c-66.032 0-69.206-24.656-69.206-70.684l-0.262-88.324h158.69l-18.704-176.45-139.854-0.058-0.13-512z" />
<glyph unicode="&#xe00d;" d="M854 1024h-684c-93.5 0-170-76.5-170-170v-684c0-93.5 76.5-170 170-170h684c93.5 0 170 76.5 170 170v684c0 93.5-76.5 170-170 170zM327.8 576h368.4c6.988-20.058 10.8-41.59 10.8-64 0-107.524-87.476-195-195-195-107.524 0-195 87.476-195 195 0 22.41 3.812 43.942 10.8 64zM896 575.95v-383.95c0-35.2-28.8-64-64-64h-640c-35.2 0-64 28.8-64 64v384h100.108c-4.642-20.602-7.108-42.016-7.108-64 0-160.458 130.542-291 291-291 160.458 0 291 130.542 291 291 0 21.984-2.464 43.398-7.108 64l100.108-0.05zM896 800c0-17.6-14.4-32-32-32h-64c-17.6 0-32 14.4-32 32v64c0 17.6 14.4 32 32 32h64c17.6 0 32-14.4 32-32v-64z" />
<glyph unicode="&#xe00e;" d="M1023.999 829.579c-37.676-16.708-78.164-28.002-120.66-33.08 43.372 26 76.686 67.17 92.372 116.23-40.596-24.078-85.556-41.56-133.409-50.98-38.32 40.83-92.922 66.34-153.345 66.34-116.022 0-210.087-94.058-210.087-210.077 0-16.466 1.858-32.5 5.44-47.878-174.599 8.764-329.401 92.4-433.016 219.505-18.084-31.028-28.446-67.116-28.446-105.618 0-72.888 37.088-137.191 93.46-174.865-34.438 1.092-66.832 10.542-95.154 26.278-0.02-0.876-0.02-1.756-0.02-2.642 0-101.788 72.418-186.695 168.521-205.999-17.626-4.8-36.188-7.372-55.348-7.372-13.538 0-26.698 1.32-39.528 3.772 26.736-83.46 104.32-144.205 196.251-145.895-71.9-56.35-162.485-89.934-260.915-89.934-16.958 0-33.68 0.994-50.116 2.94 92.972-59.61 203.401-94.394 322.041-94.394 386.42 0 597.733 320.123 597.733 597.741 0 9.108-0.206 18.168-0.61 27.18 41.056 29.62 76.672 66.62 104.836 108.748z" />
<glyph unicode="&#xe011;" d="M136.292 273.07c-75.196 0-136.292-61.334-136.292-136.076 0-75.154 61.1-135.802 136.292-135.802 75.466 0 136.494 60.648 136.494 135.802-0.002 74.742-61.024 136.076-136.494 136.076zM0.154 676.07v-196.258c127.784 0 247.958-49.972 338.458-140.512 90.384-90.318 140.282-211.036 140.282-339.3h197.122c-0.002 372.82-303.282 676.07-675.862 676.07zM0.386 1024v-196.356c455.782 0 826.756-371.334 826.756-827.644h196.856c0 564.47-459.254 1024-1023.612 1024z" />
<glyph unicode="&#xe016;" d="M0 715.63l41.594-54.544c0 0 85.77 67.608 114.36 33.802 28.588-33.802 137.736-441.956 174.17-517.246 31.8-66.03 119.518-153.32 215.714-90.982 96.136 62.34 415.84 335.286 473.066 657.616 57.18 322.226-384.72 254.726-431.53-26.01 116.99 70.236 179.436-28.538 119.57-140.372-59.758-111.724-114.36-184.592-142.952-184.592-28.538 0-50.49 74.768-83.188 205.446-33.798 135.102-33.592 378.46-174.116 350.87-132.518-26.012-306.688-233.988-306.688-233.988z" />
<glyph unicode="&#xe01a;" d="M800 288q-93 0-158.5 65.5t-65.5 158.5 65.5 158.5 158.5 65.5 158.5-65.5 65.5-158.5-65.5-158.5-158.5-65.5zM224 288q-93 0-158.5 65.5t-65.5 158.5 65.5 158.5 158.5 65.5 158.5-65.5 65.5-158.5-65.5-158.5-158.5-65.5z" />
<glyph unicode="&#xe02a;" d="M608.876 370.53c-17.282-17.426-2.668-49.128-2.668-49.128l130.091-217.219c0 0 21.36-28.64 39.864-28.64 18.59 0 36.954 15.27 36.954 15.27l102.844 147.009c0 0 10.36 18.546 10.598 34.792 0.372 23.106-34.454 29.434-34.454 29.434l-243.489 78.192c-0.002-0.004-23.858 6.328-39.74-9.71zM596.533 480.015c12.46-21.128 46.828-14.972 46.828-14.972l242.939 71.006c0 0 33.106 13.466 37.832 31.418 4.64 17.954-5.46 39.622-5.46 39.622l-116.098 136.753c0 0-10.062 17.292-30.938 19.032-23.016 1.958-37.18-25.898-37.18-25.898l-137.271-216.011c0-0.004-12.134-21.516-0.652-40.95zM481.754 564.231c28.608 7.044 33.148 48.604 33.148 48.604l-1.944 345.871c0 0-4.314 42.666-23.486 54.232-30.07 18.242-38.982 8.718-47.596 7.444l-201.697-74.944c0 0-19.754-6.536-30.042-23.018-14.69-23.352 14.928-57.544 14.928-57.544l209.645-285.757c0 0 20.69-21.396 47.044-14.888zM431.944 424.261c0.722 26.676-32.03 42.7-32.03 42.7l-216.797 109.524c0 0-32.126 13.246-47.722 4.016-11.95-7.06-22.536-19.84-23.572-31.134l-14.12-173.813c0 0-2.116-30.114 5.69-43.82 11.054-19.442 47.428-5.902 47.428-5.902l253.097 55.942c9.832 6.61 27.074 7.204 28.026 42.486zM494.88 330.456c-21.726 11.156-47.724-11.95-47.724-11.95l-169.469-186.567c0 0-21.144-28.528-15.768-46.05 5.066-16.418 13.454-24.578 25.318-30.328l170.193-53.726c0 0 20.634-4.286 36.258 0.242 22.18 6.43 18.094 41.152 18.094 41.152l3.848 252.603c-0.002-0.002-0.868 24.334-20.75 34.624z" />
<glyph unicode="&#xe02c;" d="M235.278 775.28c-50.792 0-94.484-16.806-131.084-50.416-38.086-35.852-57.14-80.66-57.14-134.436 0-35.852 10.376-69.462 31.294-100.832 18.674-29.126 38.18-47.806 63.778-56.024v-2.242c-25.598-10.448-36.966-36.59-36.966-78.418 0-32.124 11.372-56.022 36.966-71.708v-2.242c-70.654-23.146-102.992-66.094-102.992-128.83 0-54.534 23.748-94.488 70.066-119.878 36.59-20.172 83.578-30.254 140.346-30.254 138.17 0 207.406 57.882 207.406 173.664 0 72.446-53.322 116.882-160.128 133.316-24.646 3.726-43.286 12.696-55.982 26.89-9.708 9.708-14.542 19.418-14.542 29.126 0 27.632 14.958 43.696 44.82 48.176 45.558 6.714 82.728 27.824 111.486 63.296 28.75 35.48 43.13 77.118 43.13 124.916 0 14.938-4.518 30.996-10.488 48.172 19.418 4.488 33.05 8.594 43.292 12.332v115.392c-45.054-17.928-86.99-26.884-122.842-26.884-31.374 17.922-63.824 26.884-100.42 26.884zM247.602 216.23c62.744 0 94.104-19.042 94.104-57.14 0-40.336-28.754-60.492-86.264-60.492-65.724 0-98.586 19.422-98.586 58.254-0.002 39.59 30.244 59.378 90.746 59.378zM239.76 512c-47.054 0-70.586 25.764-70.586 77.308 0 55.262 23.532 82.906 70.586 82.906 22.402 0 39.958-8.596 52.652-25.768 10.458-15.69 15.69-34.36 15.69-56.022 0-52.278-22.786-78.424-68.342-78.424zM580.384 1024c-21.656 0-40.14-8.214-55.454-24.648-15.314-16.436-22.97-36.216-22.97-59.376 0-22.41 7.658-41.82 22.97-58.258 15.308-16.434 33.792-24.64 55.454-24.64 20.91 0 39.028 8.208 54.34 24.64 15.312 16.438 22.96 35.848 22.96 58.258 0 23.16-7.648 42.944-22.96 59.376-15.318 16.434-33.43 24.648-54.34 24.648zM643.13 768.002h-126.606c1.496-14.336-0.64-36.042-0.64-71.14v-348.432c0-35.856 2.136-64.774 0.64-76.036h126.606c-1.5 16.376-5.394 44.668-5.394 82.758v343.946c-0.006 32.864 3.894 54.568 5.394 68.904zM922.336 379.8c-32.872 0-49.082 25.028-49.082 75.066v206.64h49.864c8.96 0 17.032 0.492 27.118-0.246 10.086-0.748 14.152-0.25 19.278-0.25v106.99h-96.258v47.616c0 17.922 2.816 34.302 5.054 44.542h-129.958c2.242-10.24 2.028-25.876 2.028-46.79v-45.368h-56.32v-106.988c15.364 2.24 29.09 3.356 38.796 3.356l17.524-1.118v-202.786c0-62.742 7.958-108.672 23.636-137.8 20.922-38.84 57.622-58.258 112.136-58.258 38.848 0 73.118 7.464 98.714 22.41v112.032c-20.474-12.7-39.382-19.048-62.53-19.048z" />
<glyph unicode="&#xe031;" d="M704 0h-384q-87 0-160.5 43t-116.5 116.5-43 160.5v384q0 87 43 160.5t116.5 116.5 160.5 43h192q87 0 160.5-43t116.5-116.5 43-160.5q0-26 18.5-45t45.5-19h64q26 0 45-18.5t19-45.5v-256q0-87-43-160.5t-116.5-116.5-160.5-43zM512 768h-192q-27 0-45.5-18.5t-18.5-45 18.5-45.5 45.5-19h192q27 0 45.5 19t18.5 45.5-19 45-45 18.5zM704 384h-384q-27 0-45.5-18.5t-18.5-45 18.5-45.5 45.5-19h384q26 0 45 19t19 45.5-19 45-45 18.5z" />
<glyph unicode="&#xe033;" d="M575.942 576l-0.002-234.186c0-59.419-0.77-93.657 5.53-110.501 6.25-16.754 21.918-34.146 38.99-44.202 22.684-13.588 48.542-20.376 77.709-20.376 51.855 0 82.479 6.848 133.743 40.54v-153.946c-43.7-20.552-81.867-32.594-117.325-40.922-35.5-8.242-73.861-12.406-115.065-12.406-46.828 0-74.457 5.886-110.411 17.656-35.958 11.868-66.661 28.806-92.021 50.54-25.45 21.922-43.022 45.208-52.849 69.833-9.826 24.636-14.716 60.415-14.716 107.245v359.104h-137.427v145.007c40.208 13.042 85.165 31.788 113.781 56.153 28.754 24.45 51.767 53.707 69.107 87.945 17.392 34.146 29.348 77.713 35.872 130.517h165.086l-0.002-255.998h255.97v-192.002h-255.97z" />
<glyph unicode="&#xe035;" d="M852.273 383.355l-14.933 418.116c-0.631 17.679 13.325 32.141 31.013 32.141h128.645c17.689 0 29.616-14.247 26.509-31.661l-74.751-418.597zM964.837 246.67c0-30.955-25.327-56.282-56.282-56.282h-16.081c-30.955 0-56.282 25.327-56.282 56.282v16.081c0 30.955 25.327 56.282 56.282 56.282h16.081c30.955 0 56.282-25.327 56.282-56.282v-16.081zM385.935 833.612c-213.147 0-385.935-143.99-385.935-321.612 0-177.621 172.788-321.612 385.935-321.612 213.147 0 385.935 143.992 385.935 321.612 0 177.623-172.788 321.612-385.935 321.612zM643.225 576.322h-74.636l-118.331-118.333v-74.634h96.484v-64.322h-257.29v64.322h96.484v74.634l-182.656 182.656h-42.274v64.322h192.571v-64.322h-42.276l106.795-106.795 32.161 32.161v74.634h192.967v-64.322z" />
<glyph unicode="&#xe043;" d="M853.376 1024h-682.69c-93.876 0-170.686-76.816-170.686-170.692v-682.624c0-93.93 76.81-170.684 170.686-170.684h682.69c93.874 0 170.624 76.752 170.624 170.684v682.624c0 93.876-76.75 170.692-170.624 170.692zM960 170.684c0-28.334-11.14-55.082-31.37-75.316-20.222-20.228-46.948-31.368-75.254-31.368h-341.376v448h-448v341.308c0 28.308 11.15 55.05 31.396 75.296 20.244 20.246 46.984 31.396 75.29 31.396h341.314v-448h448v-341.316z" />
<glyph unicode="&#xe044;" d="M852 1024h-680c-94.6 0-172-77.4-172-172v-680c0-94.6 77.4-172 172-172h680c94.6 0 172 77.4 172 172v680c0 94.6-77.4 172-172 172zM512 704c-35.29 0-64-28.71-64-64v-256c0-105.872-86.13-192-192-192s-192 86.128-192 192v128h128v-128c0-35.29 28.71-64 64-64s64 28.71 64 64v256c0 105.87 86.13 192 192 192s192-86.13 192-178v-62l-82-24-46 24v62c0 21.29-28.71 50-64 50zM960 384c0-105.872-86.13-192-192-192s-192 86.128-192 206v124l46-24 82 24v-124c0-49.29 28.71-78 64-78s64 28.71 64 64v128h128v-128z" />
<glyph unicode="&#xe090;" d="M64 576h384v-128h-128v-384h-128v384h-128zM960 832h-251.75v-768h-136.5v768h-251.75v128h640z" />
<glyph unicode="&#xe0a5;" d="M320 1024h384v-64h-384zM320 896h384v-64h-384zM320 768h384v-64h-384zM512 0l448 448h-256v192h-384v-192h-256z" />
<glyph unicode="&#xe0d7;" d="M512 1024c282.77 0 512-229.23 512-512s-229.23-512-512-512-512 229.23-512 512 229.23 512 512 512zM512 128c212.078 0 384 171.922 384 384s-171.922 384-384 384c-212.078 0-384-171.922-384-384 0-212.078 171.922-384 384-384zM448 288v160h320v128h-320v160l-224-224z" />
<glyph unicode="&#xe0d8;" d="M512 1024c-282.77 0-512-229.23-512-512s229.23-512 512-512 512 229.23 512 512-229.23 512-512 512zM512 96c-229.75 0-416 186.25-416 416s186.25 416 416 416 416-186.25 416-416-186.25-416-416-416zM813.256 557.254l-256.002 256c-24.992 24.994-65.514 24.994-90.508 0s-24.994-65.516 0-90.51l146.744-146.744h-357.49c-35.346 0-64-28.654-64-64s28.654-64 64-64h357.49l-146.746-146.744c-24.994-24.994-24.994-65.518 0-90.512 12.498-12.496 28.878-18.744 45.256-18.744s32.758 6.248 45.254 18.744l256.002 256c24.992 24.994 24.992 65.518 0 90.51z" />
<glyph unicode="&#xe0d9;" d="M387.139 929.433l-365.715-365.715c-28.565-28.562-28.565-74.876 0-103.438l365.715-365.715c28.565-28.562 74.876-28.562 103.44 0 28.567 28.562 28.567 74.876 0 103.438l-240.855 240.853h701.134c40.395 0 73.143 32.745 73.143 73.143 0 40.395-32.747 73.143-73.143 73.143h-701.134l240.853 240.853c14.281 14.281 21.424 33.001 21.424 51.719s-7.141 37.438-21.422 51.719c-28.567 28.565-74.876 28.565-103.44 0z" />
<glyph unicode="&#xe0de;" d="M636.861 94.568l365.714 365.714c28.565 28.562 28.565 74.875 0 103.44l-365.714 365.714c-28.565 28.562-74.875 28.562-103.44 0-28.565-28.565-28.565-74.875 0-103.44l240.853-240.853h-701.131c-40.395 0-73.143-32.747-73.143-73.143s32.747-73.143 73.143-73.143h701.131l-240.853-240.853c-14.281-14.281-21.422-33.001-21.422-51.719s7.141-37.438 21.422-51.719c28.565-28.565 74.875-28.565 103.44 0z" />
<glyph unicode="&#xe0f2;" d="M512 1024c-282.77 0-512-229.23-512-512s229.23-512 512-512 512 229.23 512 512-229.23 512-512 512zM512 128c-212.078 0-384 171.922-384 384s171.922 384 384 384c212.078 0 384-171.922 384-384 0-212.078-171.922-384-384-384zM576 288v160h-320v128h320v160l224-224z" />
<glyph unicode="&#xe134;" d="M864 912l-480-480-224 224-160-160 384-384 640 640z" />
<glyph unicode="&#xe135;" d="M781.256 333.256l-90.512-90.512-178.744 178.746-178.746-178.744-90.51 90.51 178.746 178.744-178.744 178.746 90.508 90.508 178.746-178.744 178.744 178.746 90.512-90.51-178.746-178.746 178.746-178.744z" />
<glyph unicode="&#xe137;" d="M512 960c-247.422 0-448-200.576-448-448s200.578-448 448-448c247.424 0 448 200.576 448 448s-200.576 448-448 448zM781.256 333.256l-90.512-90.512-178.744 178.746-178.746-178.744-90.51 90.51 178.746 178.744-178.744 178.746 90.508 90.508 178.746-178.744 178.744 178.746 90.512-90.51-178.746-178.746 178.746-178.744z" />
<glyph unicode="&#xe157;" d="M913.706 448c73 0 32-192-32-192 32 0 0-160-64-160 0-64-64-96-128-96-270.352 0-175.264 67.65-448 96v512c240.922 72.268 480 253.424 480 416 53 0 192-64 0-384 0 0 160 0 192 0 96 0 64-192 0-192zM177.705 608v-512h64v-32h-128c-35.2 0-64 43.2-64 96v384c0 52.8 28.8 96 64 96h128v-32h-64z" />
<glyph unicode="&#xe1ce;" d="M898.155 85.507l-229.08 336.61c130.918 103.67 167.926 291.354 79.67 438.252-95.854 159.548-303.626 211.344-463.158 115.51-159.53-95.866-211.324-303.632-115.478-463.166 86.426-143.884 263.924-200.094 414.958-139.434l190.286-361.566c5.9-11.222 19.604-15.046 30.458-8.546l85.568 51.44c10.874 6.526 13.928 20.428 6.776 30.9zM577.563 489.935c-108.422-65.126-249.616-29.918-314.75 78.506-65.13 108.394-29.904 249.588 78.506 314.72 108.378 65.14 249.574 29.922 314.702-78.49 65.138-108.396 29.936-249.622-78.458-314.736z" />
<glyph unicode="&#xe212;" d="M651.216 493.636l372.784-257.108v591.894zM0 828.422v-591.894l372.776 257.144zM512 368.618l-89.002 79.91-422.998-256.528h1024l-423.01 256.528zM993.28 832h-962.56l481.28-361.852z" />
<glyph unicode="&#xe600;" d="M794.036 1024h-563.939c-95.599 0-173.421-77.787-173.421-173.451v-677.312c0-95.463 77.821-173.237 173.421-173.237h563.939c95.591 0 173.288 77.775 173.288 173.237v677.312c0 95.663-77.697 173.451-173.288 173.451zM885.687 173.237c0-50.432-41.156-91.48-91.651-91.48h-563.939c-50.521 0-91.587 41.048-91.587 91.48v9.068c21.611-9.532 48.845-14.893 80.659-14.893 55.116 0 83.579 15.893 108.739 29.875 22.378 12.705 39.985 22.556 78.417 22.556 39.525 0 78.247-29.986 78.247-52.35h54.989c0 22.364 38.691 52.35 78.136 52.35 38.423 0 56.129-9.854 78.387-22.556 25.109-13.982 53.554-29.875 108.803-29.875 31.641 0 59.115 5.362 80.795 14.893v-9.068zM885.692 262.426c-0.064-26.497-48.265-36.028-80.795-36.028-40.743 0-59.942 10.655-81.906 22.974-24.598 13.77-52.449 29.459-105.289 29.459-41.006 0-80.527-19.003-105.756-46.006-25.152 27.003-64.507 46.006-105.62 46.006-52.798 0-80.672-15.689-105.326-29.459-22.045-12.319-41.078-22.974-81.83-22.974-32.411 0-80.532 9.532-80.659 35.9v589.189c0 50.508 41.066 91.684 91.587 91.684h563.944c50.499 0 91.651-41.177 91.651-91.684v-589.062zM288.051 915.964c0 0 27.845-42.772 22.14-60.903-9.195-29.399-19.492-72.831-4.66-116.922 9.098-27.003 21.152-37.929 27.675-52.759 6.085-13.834-6.787-31.709-28.972-69.907-42.432-72.958-42.432-72.958-42.432-72.958 4.013-1.851 52.202-17.812 102.577 24.569 54.614 46.133 87.192 82.949 87.192 82.949 5.524 5.157 10.757 6.021 14.821-0.404 5.106-7.744 121.956-188.067 171.726-264.934 34.433-53.367 41.879-62.367 54.219-76.327 25.828-29.535 65.84-29.139 79.365-17.284l-279.219 624.881h-204.431zM319.301 366.948c-17.408-31.705-8.736-77.923 36.411-78.179l156.234 243.82-54.785 84.94c0 0-4.268-8.012-137.861-250.582z" />
<glyph unicode="&#xe605;" d="M512 718.705c-7.836 0-15.554-0.473-23.163-1.322v-161.837l-142.88 79.567c-25.542-34.395-40.668-76.981-40.668-123.113 0-114.163 92.542-206.705 206.705-206.705s206.705 92.542 206.705 206.705c0 114.163-92.542 206.705-206.699 206.705zM512 840.347c181.054 0 328.348-147.294 328.348-328.348s-147.294-328.348-328.348-328.348-328.348 147.294-328.348 328.348 147.294 328.348 328.348 328.348M512 963.487c-249.35 0-451.487-202.136-451.487-451.487 0-249.35 202.136-451.487 451.487-451.487s451.487 202.136 451.487 451.487c0 249.35-202.143 451.487-451.487 451.487v0z" />
<glyph unicode="&#xe608;" d="M507.021 1021.467c-59.621-124.01-272.524-244.293-10.136-435.828 72.42-53.876 193.855-86.106 131.761-212.847-5.506-9.659 4.088-12.324 12.669-5.067 88.556 102.784 232.795 264.899 111.421 397.295-68.916 74.58-210.327 123.758-238.632 194.565-5.479 13.7 0.579 33.55 8.119 49.21 6.08 14.568-11.969 18.376-15.203 12.674zM510.227 1021.467c-59.621-124.01-272.524-244.293-10.136-435.828 72.42-53.876 193.855-86.106 131.761-212.847-5.506-9.659 4.088-12.324 12.669-5.067 88.556 102.784 232.795 264.899 111.421 397.295-68.916 74.58-210.327 123.758-238.632 194.565-5.479 13.7 0.579 33.55 8.119 49.21 6.08 14.568-11.964 18.376-15.203 12.674zM384.416 591.83c-30.68-83.53-185.791-179.613 21.297-290.517 47.885-28.59 109.83-64.371 103.036-116.732-2.558-6.677 3.435-7.587 8.035-2.198 68.23 78.178 119.446 190.043 35.888 265.048-43.648 42.295-146.889 65.141-158.098 137.519 2.515 9.887-8.66 10.821-10.158 6.879zM243.979 151.877h523.227v-64.254h-523.227v64.254zM244.609 153.668l-23.107-64.922 39.612-0.55-16.505 65.472zM766.739 153.668l23.107-64.922-39.612-0.55 16.505 65.472zM354.299 104.921l38.576-104.921 226.817 0.77 35.487 104.151h-300.88z" />
<glyph unicode="&#xe609;" d="M536.554 333.045c225.511 241.377 321.818 400.019 363.676 487.181l123.77-461.865c-153.765 88.633-312.819 62.402-487.446-25.316zM90.117 86.658c108.819 326.682 112.159 609.334-90.117 850.684l864.695-85.186c-85.995-48.618-241.51-157.781-472.296-403.598-133.008-141.69-231.132-263.711-302.281-361.899z" />
<glyph unicode="&#xe60a;" d="M781.538 934.042h-539.077c-133.911 0-242.461-108.55-242.461-242.461v-20.205c0-133.911 108.55-242.461 242.461-242.461h2l131.773-338.958 132.296 338.958h273.01c133.911 0 242.461 108.55 242.461 242.461v20.205c0 133.911-108.55 242.461-242.461 242.461zM886.396 677.794c0-62.801-50.912-113.712-113.712-113.712h-327.337l-68.917-207.068-54.924 207.068h-69.659c-62.801 0-113.712 50.912-113.712 113.712v9.477c0 62.801 50.912 113.712 113.712 113.712h520.845c62.801 0 113.712-50.912 113.712-113.712v-9.477h-0.007z" />
<glyph unicode="&#xe6c6;" d="M512 800c8.832 0 16-7.168 16-16s-7.2-16-16-16c-170.464 0-320-89.728-320-192 0-8.832-7.168-16-16-16-8.832 0-16 7.168-16 16 0 121.408 161.184 224 352 224zM512 960c-282.784 0-512-171.936-512-384 0-132.064 88.928-248.512 224.256-317.632 0-0.864-0.256-1.44-0.256-2.368 0-57.376-42.848-119.136-61.696-151.552 0.032 0 0.064 0 0.064 0-1.504-3.52-2.368-7.392-2.368-11.456 0-16 12.96-28.992 28.992-28.992 3.008 0 8.288 0.8 8.16 0.448 100 16.384 194.208 108.256 216.096 134.88 31.968-4.704 64.928-7.328 98.752-7.328 282.72 0 512 171.936 512 384 0 212.064-229.248 384-512 384zM512 256c-29.344 0-59.456 2.24-89.472 6.624-3.104 0.512-6.208 0.672-9.28 0.672-19.008 0-37.216-8.448-49.472-23.36-13.696-16.672-52.672-53.888-98.72-81.248 12.48 28.64 22.24 60.736 22.912 93.824 0.192 2.048 0.288 4.128 0.288 5.888 0 24.064-13.472 46.048-34.88 56.992-118.592 60.544-189.376 157.984-189.376 260.608 0 176.448 200.96 320 448 320 246.976 0 448-143.552 448-320 0-176.448-200.992-320-448-320z" />
<glyph unicode="&#xe725;" d="M896 64h-768c-35.328 0-64 28.672-64 64v672c0 35.328 28.672 64 64 64h64v-32c0-53.024 42.976-96 96-96s96 42.976 96 96v32h256v-32c0-53.024 43.008-96 96-96s96 42.976 96 96v32h64c35.328 0 64-28.672 64-64v-672c0-35.328-28.672-64-64-64zM896 640h-768v-512h768v512zM418.208 389.472c6.304 10.048 9.472 20.672 9.472 31.776 0 24.736-13.312 37.12-39.936 37.12-23.136 0-45.248-9.184-66.368-27.552v52.128c23.36 15.136 49.76 22.688 79.136 22.688 27.488 0 48.96-6.912 64.416-20.704s23.168-32.48 23.168-55.968c0-31.36-18.816-63.808-56.448-97.312l-55.328-49.12v-1.12h109.12v-49.12h-176.992v46.112l77.056 73.696c15.488 14.848 26.4 27.296 32.704 37.376zM634.784 282.688c8.448 6.496 12.672 15.552 12.672 27.2 0 12-5.216 21.248-15.648 27.744s-24.768 9.76-43.04 9.76h-24.192v45.376h22.304c35.008 0 52.512 11.616 52.512 34.88 0 21.888-13.44 32.8-40.32 32.8-17.984 0-35.488-5.824-52.512-17.44v48.384c18.88 9.504 40.864 14.24 65.984 14.24 27.488 0 48.896-6.176 64.224-18.56s22.976-28.448 22.976-48.192c0-35.136-17.824-57.12-53.44-65.984v-0.928c19.008-2.368 33.984-9.28 44.992-20.704s16.512-25.472 16.512-42.08c0-25.12-9.184-44.992-27.552-59.616s-43.744-21.952-76.128-21.952c-27.744 0-50.304 4.512-67.68 13.504v51.552c17.984-13.12 39.008-19.68 63.008-19.68 15.104-0.064 26.88 3.2 35.328 9.696zM735.008 768c-34.816 0-63.008 28.192-63.008 63.008v65.984c0 34.816 28.192 63.008 63.008 63.008s63.008-28.192 63.008-63.008v-65.984c0-34.816-28.192-63.008-63.008-63.008zM287.008 768c-34.816 0-63.008 28.192-63.008 63.008v65.984c0 34.816 28.192 63.008 63.008 63.008s63.008-28.192 63.008-63.008v-65.984c0-34.816-28.224-63.008-63.008-63.008z" />
<glyph unicode="&#xe746;" d="M696.022 511.949l312.741-312.741c20.316-20.316 20.316-53.303 0-73.619l-110.352-110.352c-20.316-20.316-53.252-20.316-73.619 0l-312.792 312.741-312.792-312.741c-20.316-20.316-53.252-20.316-73.568 0l-110.403 110.352c-20.316 20.316-20.316 53.252 0 73.619l312.792 312.741-312.792 312.792c-20.316 20.316-20.316 53.303 0 73.619l110.455 110.352c20.316 20.316 53.252 20.316 73.568 0l312.741-312.792 312.792 312.792c20.316 20.316 53.252 20.316 73.619 0l110.352-110.403c20.316-20.316 20.316-53.252 0-73.619l-312.741-312.741z" />
<glyph unicode="&#xe787;" d="M800.5 640l96-103-135-42 32-137-127 29 102-325q0-33-28-52l-52 52-62-62q-22 5-36 22.5t-14 39.5l-65 206-64-206q0-22-14-39.5t-36-22.5l-62 62-52-52q-28 19-28 52l102 325-127-29 32 137-135 42 96 103-96 103 135 41-32 137 137-32 41 135 103-96 103 96 42-135 137 32-32-137 135-41zM512 832q-79.5 0-136-56.5t-56.5-136 56.5-136 136-56.5 136 56.5 56.5 136-56.5 136-136 56.5z" />
<glyph unicode="&#xe7ac;" d="M298.667 661.334c35.328 0 64-28.629 64-64s-28.672-64-64-64-64 28.629-64 64 28.672 64 64 64zM512 661.334c35.328 0 64-28.629 64-64s-28.672-64-64-64-64 28.629-64 64 28.672 64 64 64zM725.334 661.334c35.328 0 64-28.629 64-64s-28.672-64-64-64-64 28.629-64 64 28.672 64 64 64zM874.666 1002.666h-725.333c-70.571 0-128-57.429-128-128v-512c0-70.571 85.333-85.333 128-85.333v-256l384 256h341.333c70.571 0 128 57.429 128 128v469.333c0 70.571-57.429 128-128 128zM917.334 405.333c0-23.509-19.157-42.667-42.667-42.667h-384l-256-213.333v213.333h-85.333c-23.509 0-42.667 19.157-42.667 42.667v469.333c0 23.509 19.157 42.667 42.667 42.667h725.333c23.509 0 42.667-19.157 42.667-42.667v-469.333z" />
<glyph unicode="&#xe7f0;" d="M252.523 800.416c0-17.625 0-63.868 0-63.868h449.094c0 0 0 46.242 0 63.868 0 17.657-14.26 31.95-31.918 31.95h-95.818c0 0 1.09 36.468 1.09 92.357 0 51.883-44.993 99.279-98.894 99.279s-95.433-45.057-95.433-98.99c0-51.883-0.385-92.645-0.385-92.645h-95.786c-17.657 0-31.95-14.293-31.95-31.95zM476.076 928.151c17.625 0 31.95-14.293 31.95-31.918 0-17.657-14.325-31.95-31.95-31.95s-31.95 14.293-31.95 31.95c0 17.625 14.325 31.918 31.95 31.918zM765.516 832.366v-317.288c0 0 27.56 30.412 63.836 44.993v304.213c0 35.283-30.604 63.868-65.855 63.868h-157.699v-63.868h127.736c17.657 0 31.982-14.293 31.982-31.918zM410.189 63.901h-189.617c-17.625 0-31.918 14.26-31.918 31.918v736.547c0 17.625 14.293 31.918 31.918 31.918h129.755v63.868h-161.672c-35.283 0-63.868-28.617-63.868-63.868v-800.383c0-35.283 28.585-63.9 63.868-63.9h291.01c-12.498 21.086-34.834 45.441-69.476 63.9zM765.516 95.819c0-17.657-14.325-31.918-31.95-31.918h-87.454c-16.087-21.535-31.245-42.942-45.185-63.9h162.602c35.251 0 65.855 28.617 65.855 63.9v196.41c-21.15-17.401-42.557-37.045-63.836-58.644v-105.848zM899.212 354.879c-35.988 79.987-15.382 144.944-10.255 219.932-210.831-104.951-344.527-419.9-344.527-419.9l-82.262 154.975-169.684-99.952c72.008-24.964 174.843-104.951 262.265-209.934 61.657 109.982 251.914 334.849 344.463 354.878z" />
<glyph unicode="&#xe7fc;" d="M512 1024c-282.752 0-512-229.248-512-512s229.248-512 512-512 512 229.248 512 512-229.248 512-512 512zM512 85.333c-235.264 0-426.667 191.403-426.667 426.667s191.403 426.667 426.667 426.667 426.667-191.403 426.667-426.667-191.403-426.667-426.667-426.667zM701.739 806.187c-21.077 10.496-46.72 1.963-57.259-19.072l-144.171-288.384-86.187 86.144c-16.683 16.683-43.648 16.683-60.331 0s-16.683-43.648 0-60.331l128-128c8.107-8.107 18.944-12.544 30.208-12.544 2.261 0 4.565 0.171 6.827 0.555 13.525 2.219 25.173 10.795 31.317 23.04l170.667 341.333c10.581 21.077 2.005 46.677-19.072 57.259zM469.419 213.419h85.333v-42.752h-85.333zM469.419 896h85.333v-42.752h-85.333zM128 554.752h85.333v-42.752h-85.333zM810.581 554.752h85.333v-42.752h-85.333z" />
<glyph unicode="&#xe850;" d="M960 832v64l-448-128-448 128v-64l320-128v-256l-128-448h64l192 448 192-448h64l-128 448v256zM416 928c0 53.019 42.981 96 96 96s96-42.981 96-96c0-53.019-42.981-96-96-96-53.019 0-96 42.981-96 96z" />
<glyph unicode="&#xe8cd;" d="M1024 219.428v-73.143q0-14.857-10.857-25.714t-25.714-10.857h-950.857q-14.857 0-25.714 10.857t-10.857 25.714v73.143q0 14.857 10.857 25.714t25.714 10.857h950.857q14.857 0 25.714-10.857t10.857-25.714zM804.571 438.857v-73.143q0-14.857-10.857-25.714t-25.714-10.857h-731.429q-14.857 0-25.714 10.857t-10.857 25.714v73.143q0 14.857 10.857 25.714t25.714 10.857h731.429q14.857 0 25.714-10.857t10.857-25.714zM950.857 658.286v-73.143q0-14.857-10.857-25.714t-25.714-10.857h-877.714q-14.857 0-25.714 10.857t-10.857 25.714v73.143q0 14.857 10.857 25.714t25.714 10.857h877.714q14.857 0 25.714-10.857t10.857-25.714zM731.429 877.714v-73.143q0-14.857-10.857-25.714t-25.714-10.857h-658.286q-14.857 0-25.714 10.857t-10.857 25.714v73.143q0 14.857 10.857 25.714t25.714 10.857h658.286q14.857 0 25.714-10.857t10.857-25.714z" />
<glyph unicode="&#xe8fb;" d="M512 1024c-282.77 0-512-229.23-512-512s229.23-512 512-512 512 229.23 512 512-229.23 512-512 512zM128 512c0 212.078 171.922 384 384 384v-768c-212.078 0-384 171.922-384 384z" />
<glyph unicode="&#xe911;" d="M1024 725.42q0-13.339-10.26-23.599l-478.141-478.141q-10.26-10.26-23.599-10.26t-23.599 10.26l-478.141 478.141q-10.26 10.26-10.26 23.599t10.26 23.599l51.302 51.302q10.26 10.26 23.599 10.26t23.599-10.26l403.238-403.238 403.238 403.238q10.26 10.26 23.599 10.26t23.599-10.26l51.302-51.302q10.26-10.26 10.26-23.599z" />
<glyph unicode="&#xe914;" d="M810.58 938.835q0-13.339-10.26-23.599l-403.238-403.238 403.238-403.238q10.26-10.26 10.26-23.599t-10.26-23.599l-51.302-51.302q-10.26-10.26-23.599-10.26t-23.599 10.26l-478.141 478.141q-10.26 10.26-10.26 23.599t10.26 23.599l478.141 478.141q10.26 10.26 23.599 10.26t23.599-10.26l51.302-51.302q10.26-10.26 10.26-23.599z" />
<glyph unicode="&#xe915;" d="M810.582 512.002q0-13.339-10.26-23.6l-478.142-478.142q-10.26-10.26-23.6-10.26t-23.6 10.26l-51.302 51.302q-10.26 10.26-10.26 23.6t10.26 23.6l403.239 403.239-403.239 403.239q-10.26 10.26-10.26 23.6t10.26 23.6l51.302 51.302q10.26 10.26 23.6 10.26t23.6-10.26l478.142-478.142q10.26-10.26 10.26-23.6z" />
<glyph unicode="&#xe9c9;" d="M561.856 616.999c-39.042 2.282-84.082-0.048-136.25-8.95l120.334-216.888 478.06 131.266c-5.154 12.26-12.686 24.226-22.662 35.798-49.474 57.278-156.74 108.374-273.604 131.418l0.002 0.026c-114.644 26.874-238.802 25.744-365.96 6.548-4.584-0.688-9.144-1.422-13.68-2.184l-42.272 78.292c-41.142-5.492-79.808-14.05-115.606-25.474l40.26-84.198c-65.76-25.476-119.722-61.76-158.658-105.432-64.212-73.064-89.59-164.908-58.746-254.352 6.204-18.042 14.588-35.16 24.936-51.196l478.068 131.298-132.75 245.848c4.558 0.88 9.196 1.768 13.928 2.624 214.682 38.298 332.102-20.864 396.416-83.83l-163.558-39.648-68.258 109.034zM174.724 397.611c-14.758 67.352-3.012 142.526 90.404 192.594l73.138-152.948-163.542-39.646z" />
<glyph unicode="&#xe9e7;" d="M1023.998 0h-1023.998v1024h1024l-0.002-1024zM128 896v-768h767.998l0.002 768h-768zM576 288l224 224-224 224v-160h-320v-128h320v-160z" />
<glyph unicode="&#xec77;" d="M941.248 173.248l-210.752 210.752-90.496-90.496 210.752-210.752-82.752-82.752h256v256zM82.752 850.752l210.752-210.752 90.496 90.496-210.752 210.752 82.752 82.752h-256v-256zM850.752 941.248l-210.752-210.752 90.496-90.496 210.752 210.752 82.752-82.752v256h-256zM384 293.504l-90.496 90.496-210.752-210.752-82.752 82.752v-256h256l-82.752 82.752z" />
<glyph unicode="&#xec79;" d="M896 384h-256v-256l82.752 82.752 210.752-210.752 90.496 90.496-210.752 210.752zM813.248 722.752l210.752 210.752-90.496 90.496-210.752-210.752-82.752 82.752v-256h256zM90.496 1024l-90.496-90.496 210.752-210.752-82.752-82.752h256v256l-82.752-82.752zM210.752 301.248l-210.752-210.752 90.496-90.496 210.752 210.752 82.752-82.752v256h-256z" />
<glyph unicode="&#xecd4;" d="M316.267 511.999q-86.4-2.667-141.334-68.267h-71.466q-43.733 0-73.6 21.6t-29.867 63.2q0 188.266 66.133 188.266 3.2 0 23.2-11.2t52-22.667 63.467-11.467q35.734 0 70.933 12.267-2.667-19.733-2.667-35.2 0-74.134 43.2-136.534zM887.466 172.266q0-64-38.933-101.067t-103.467-37.066h-466.134q-64.533 0-103.467 37.066t-38.933 101.067q0 28.267 1.867 55.2t7.467 58.134 14.133 57.867 22.933 52 33.067 43.2 45.6 28.533 59.466 10.667q5.333 0 22.933-11.467t38.933-25.6 57.067-25.6 72-11.467 72 11.467 57.067 25.6 38.933 25.6 22.933 11.467q32.533 0 59.466-10.667t45.6-28.533 33.067-43.2 22.933-52 14.133-57.867 7.467-58.134 1.867-55.2zM341.334 853.331q0-56.533-40-96.534t-96.534-40-96.534 40-40 96.534 40 96.534 96.534 40 96.534-40 40-96.534zM716.8 648.532q0-84.8-60-144.8t-144.8-60-144.8 60-60 144.8 60 144.8 144.8 60 144.8-60 60-144.8zM1024 528.531q0-41.6-29.867-63.2t-73.6-21.6h-71.466q-54.933 65.6-141.334 68.267 43.2 62.4 43.2 136.534 0 15.466-2.667 35.2 35.2-12.267 70.933-12.267 31.466 0 63.467 11.467t52 22.667 23.2 11.2q66.133 0 66.133-188.266zM955.733 853.331q0-56.533-40-96.534t-96.534-40-96.534 40-40 96.534 40 96.534 96.534 40 96.534-40 40-96.534z" />
<glyph unicode="&#xecd6;" d="M512.002 445.239c123.059 0 222.609 99.64 222.609 222.609s-99.551 222.609-222.609 222.609-222.609-99.64-222.609-222.609 99.551-222.609 222.609-222.609zM512.002 801.412c73.639 0 133.565-59.926 133.565-133.565s-59.926-133.565-133.565-133.565-133.565 59.926-133.565 133.565 59.926 133.565 133.565 133.565zM868.176 400.716c61.485 0 111.305 49.731 111.305 111.305 0 61.485-49.82 111.305-111.305 111.305-61.529 0-111.305-49.82-111.305-111.305 0-61.574 49.775-111.305 111.305-111.305zM868.176 578.805c36.819 0 66.783-29.964 66.783-66.783s-29.964-66.783-66.783-66.783-66.783 29.964-66.783 66.783 29.964 66.783 66.783 66.783zM868.176 374.45c-59.258 0-103.825-18.076-129.87-43.142-49.641 40.871-128.134 69.409-226.305 69.409-100.887 0-177.864-28.85-226.705-69.632-26.535 25.155-71.591 43.409-129.47 43.409-97.414 0-155.826-48.573-155.826-97.191 0-24.264 58.413-48.618 155.826-48.618 26.892 0 51.022 2.271 72.259 5.922-0.446-4.007-1.781-8.014-1.781-12.021 0-44.522 107.075-89.043 285.696-89.043 167.491 0 285.696 44.522 285.696 89.043 0 3.785-0.489 7.568-0.935 11.353 20.614-3.25 44.344-5.254 71.413-5.254 91.314 0 155.826 24.354 155.826 48.618 0 48.618-61.128 97.147-155.826 97.147zM155.828 273.251c-58.279 0-92.071 9.216-107.609 15.761 10.64 18.031 44.656 40.96 107.609 40.96 49.286 0 81.787-15.627 98.304-31.433-3.74-5.075-7.525-10.106-10.463-15.315-20.124-5.298-49.331-9.973-87.841-9.973zM512.002 222.63c-96.301 0-155.871 13.891-186.279 24.977 23.196 30.186 85.393 64.067 186.279 64.067 96.568 0 159.833-33.881 184.676-63.444-33.614-12.021-96.256-25.6-184.676-25.6zM868.176 273.251c-40.693 0-68.831 4.586-87.841 9.483-3.206 5.655-6.901 11.219-11.041 16.696 15.849 15.36 47.683 30.498 98.883 30.498 58.947 0 95.321-22.305 107.031-40.559-17.364-7.257-53.648-16.117-107.031-16.117zM155.828 400.716c61.485 0 111.305 49.82 111.305 111.305 0 61.395-49.82 111.305-111.305 111.305-61.529 0-111.305-49.909-111.305-111.305 0-61.485 49.775-111.305 111.305-111.305zM155.828 578.805c36.819 0 66.783-29.964 66.783-66.783s-29.964-66.783-66.783-66.783-66.783 29.964-66.783 66.783 29.964 66.783 66.783 66.783z" />
<glyph unicode="&#xed08;" d="M832 398.385l-64-64-128 320-128-384-192 704-128-640h-192v-64h244.47l85.118 425.606 176.286-646.376 139.594 418.78 99.158-247.896 113.886 113.886h165.488v64z" />
<glyph unicode="&#xed09;" d="M933.503 71.033h-73.305v-71.033h-146.61v71.033h-403.178v-71.033h-146.61v71.033h-73.305c-40.501 0-73.305 32.841-73.305 73.305v623.094c0 40.501 32.804 73.305 73.305 73.305h843.01c40.464 0 73.305-32.841 73.305-73.305v-623.094c0-40.501-32.841-73.305-73.305-73.305zM713.551 510.864h-146.574v146.61h-109.958v-146.61h-146.61v-109.958h146.61v-146.61h109.958v146.61h146.574v109.958zM640.282 951.465h-219.916v-74.075h-73.305v35.883h36.653v110.727h291.681v-109.958h38.192v-36.653h-73.305v74.075z" />
<glyph unicode="&#xee28;" d="M1024 128v384h-256c0 141.12 114.752 256 256 256v128c-211.744 0-384-172.256-384-384v-384h384zM384 128v384h-256c0 141.12 114.752 256 256 256v128c-211.744 0-384-172.256-384-384v-384h384z" />
<glyph unicode="&#xee4a;" d="M51.2 768h921.6c28.266 0 51.2 22.934 51.2 51.2s-22.934 51.2-51.2 51.2h-921.6c-28.266 0-51.2-22.934-51.2-51.2s22.934-51.2 51.2-51.2zM972.8 665.6h-921.6c-28.266 0-51.2-22.934-51.2-51.2s22.934-51.2 51.2-51.2h921.6c28.266 0 51.2 22.934 51.2 51.2s-22.934 51.2-51.2 51.2zM972.8 460.8h-921.6c-28.266 0-51.2-22.934-51.2-51.2s22.934-51.2 51.2-51.2h921.6c28.266 0 51.2 22.934 51.2 51.2s-22.934 51.2-51.2 51.2zM972.8 256h-921.6c-28.266 0-51.2-22.934-51.2-51.2s22.934-51.2 51.2-51.2h921.6c28.266 0 51.2 22.934 51.2 51.2s-22.934 51.2-51.2 51.2z" />
<glyph unicode="&#xee55;" d="M231.879 907.405c0-60.473-44.658-109.454-118.101-109.454-69.12 0-113.778 48.981-113.778 109.454 0 61.895 46.137 109.454 116.679 109.454s113.778-47.559 115.2-109.454zM5.802 7.196v704.284h218.909v-704.284h-218.909zM355.727 486.826c0 87.837-2.901 161.28-5.802 224.654h190.122l10.127-97.962h4.323c28.786 46.137 99.384 113.778 217.486 113.778 143.985 0 252.018-96.483 252.018-303.9v-416.255h-218.909v390.314c0 90.738-31.744 152.69-110.933 152.69-60.473 0-96.427-41.757-112.299-82.091-5.802-14.393-7.224-34.531-7.224-54.727v-406.186h-218.909v479.686z" />
<glyph unicode="&#xee58;" d="M232.666 683.334v-660.666h-219.999v660.666h219.999zM246.666 887.332q0.666-48.666-33.666-81.333t-90.334-32.667h-1.333q-54.666 0-88 32.667t-33.333 81.333q0 49.334 34.334 81.667t89.666 32.333 88.667-32.333 34-81.667zM1023.998 401.334v-378.666h-219.333v353.333q0 70-27 109.667t-84.334 39.667q-42 0-70.334-23t-42.334-57q-7.334-20-7.334-54v-368.666h-219.333q1.333 266 1.333 431.333t-0.666 197.333l-0.666 32h219.333v-96h-1.333q13.334 21.334 27.334 37.333t37.667 34.666 58 29 76.334 10.333q114 0 183.333-75.666t69.334-221.666z" />
<glyph unicode="&#xeeb7;" d="M992.397 44.478l-24.314-24.314c-26.92-26.886-70.473-26.886-97.325 0l-194.649 194.581c-22.496 22.565-25 56.378-9.636 82.716l-106.447 106.378c-57.236-42.455-127.846-67.867-204.56-67.867-189.985 0-343.997 154.012-343.997 343.997 0 190.02 154.012 344.031 343.997 344.031 190.02 0 343.997-154.012 343.997-344.031 0-88.443-33.608-168.826-88.477-229.766l104.08-104.08c26.337 15.329 60.151 12.86 82.647-9.705l194.649-194.581c26.886-26.92 26.886-70.507 0.034-97.359zM612.838 681.375c0 142.489-115.534 257.989-258.023 257.989s-258.023-115.466-258.023-257.989 115.5-257.989 257.989-257.989 258.058 115.5 258.058 257.989z" />
<glyph unicode="&#xeebf;" d="M33.792 780.175c27.762-14.962 412.388-221.526 426.724-229.206 14.279-7.68 32.824-11.378 51.485-11.378 18.717 0 37.262 3.698 51.541 11.434 14.336 7.68 398.905 214.244 426.667 229.206 27.819 14.904 54.101 61.725 3.072 61.725h-962.504c-51.029 0-24.803-46.82 3.016-61.781zM1001.985 666.397c-31.573-16.498-419.1-219.079-438.443-229.206s-32.824-11.434-51.541-11.434c-18.66 0-32.142 1.309-51.485 11.434s-406.927 212.765-438.443 229.206c-22.243 11.606-22.073-1.991-22.073-12.459 0-10.468 0-417.28 0-417.28 0-23.893 31.801-54.613 56.433-54.613h911.19c24.69 0 56.377 30.72 56.377 54.557 0 0 0 406.813 0 417.28 0 10.524 0.228 24.121-22.016 12.516z" />
<glyph unicode="&#xf04b;" d="M736 416c-64-64-64-128-128-128s-128 64-192 128-128 128-128 192 64 64 128 128-128 256-192 256-192-192-192-192c0-128 131.5-387.5 256-512s384-256 512-256c0 0 192 128 192 192s-192 256-256 192z" />
<glyph unicode="&#xf050;" d="M66.988 985.797c40.877 40.973 164.436 47.818 165.363 26.132 0.928-21.654 111.276-261.99 112.236-283.676 0.96-21.654-72.734-95.54-94.292-117.162-21.366-21.398 144.189-208.959 147.324-212.509 3.518-3.167 190.632-169.106 211.998-147.675 21.558 21.622 95.284 95.476 116.842 94.516 21.622-0.928 261.415-111.532 283.037-112.524 21.622-0.928 14.809-124.742-26.068-165.747-34.96-35.024-215.964-162.197-530.699 64.898-34.512 19.895-89.175 65.538-172.08 148.603-0.032 0.032-0.096 0.096-0.16 0.128-0.064 0.096-0.128 0.128-0.192 0.192s-0.128 0.128-0.192 0.192c-0.032 0.064-0.096 0.128-0.128 0.16-82.842 83.097-128.388 137.92-148.251 172.496-226.551 315.502-99.666 496.953-64.738 531.978z" />
<glyph unicode="&#xf0c3;" d="M512 0q-139 0-257 68.5t-186.5 186.5-68.5 257 68.5 257 186.5 186.5 257 68.5 257-68.5 186.5-186.5 68.5-257-68.5-257-186.5-186.5-257-68.5zM512 896q-159 0-271.5-112.5t-112.5-271.5 112.5-271.5 271.5-112.5 271.5 112.5 112.5 271.5-112.5 271.5-271.5 112.5zM384 736l384-224-384-224v448z" />
<glyph unicode="&#xf18c;" d="M1022.959 682.973q-1-14.999-9.5-28.999t-21.499-13.999h-329.987q-23.999-1-22.999 33.999l125.995 125.995q-108.996 95.996-252.99 95.996-103.996 0-192.492-51.498t-139.995-139.995-51.498-192.992 51.498-192.492 139.995-139.495 192.492-51.498q87.997 0 165.494 37.499t131.495 103.496l100.996-78.997q-71.997-88.997-175.993-139.495t-221.991-50.498q-103.996 0-198.992 40.498t-163.494 108.996-108.996 163.494-40.498 198.992 40.498 198.492 108.996 162.994 163.494 108.996 198.992 40.498q96.996 0 185.493-34.999t158.494-97.996l133.995 133.995q34.999 1 33.999-22.999z" />
<glyph unicode="&#xf227;" d="M1005 19q-19-19-45.5-19t-45.5 19l-198 198q-120-89-268-89-91 0-174 35.5t-143 95.5-95.5 142.5-35.5 174 35.5 174.5 95.5 142.5 143 95 174 35.5 174-35.5 143-95 95.5-142.5 35.5-174q0-149-89-268l198-198q19-19 19-45.5t-19-45.5zM448 895q-87 0-160.5-42.5t-116.5-116.5-43-160.5 43-160.5 116.5-116.5 160.5-42.5 160.5 42.5 116.5 116.5 43 160.5-43 160.5-116.5 116.5-160.5 42.5z" />
<glyph unicode="&#xf22b;" d="M1014.88 97.528c12.192-12.192 12.192-31.968 0-44.192l-44.192-44.192c-12.224-12.192-32-12.192-44.192 0l-309.376 309.376c-3.36 3.36-5.6 7.328-7.104 11.552-63.456-46.368-141.376-74.048-226.016-74.048-212.064 0-384 171.936-384 384 0 212.064 171.936 384 384 384 212.064 0 384-171.936 384-384 0-84.64-27.68-162.56-74.048-226.016 4.224-1.504 8.192-3.712 11.552-7.104l309.376-309.376zM384 896.024c-141.376 0-256-114.624-256-256s114.624-256 256-256 256 114.624 256 256c0 141.376-114.624 256-256 256z" />
<glyph unicode="&#xf25c;" d="M853.333 341.332c-51.2 0-96.683-23.125-128-58.965l-312.491 156.245c8.491 22.955 13.824 47.488 13.824 73.387s-5.333 50.432-13.824 73.387l312.491 156.245c31.317-35.84 76.8-58.965 128-58.965 94.123 0 170.667 76.587 170.667 170.667s-76.544 170.667-170.667 170.667-170.667-76.587-170.667-170.667c0-12.245 1.408-24.149 3.883-35.669l-318.72-159.36c0.128-0.128 0.171-0.299 0.299-0.384-38.912 41.259-93.696 67.413-154.795 67.413-117.632 0-213.333-95.701-213.333-213.333s95.701-213.333 213.333-213.333c61.099 0 115.883 26.155 154.795 67.413-0.128-0.085-0.171-0.256-0.299-0.384l318.72-159.36c-2.475-11.52-3.883-23.424-3.883-35.669 0-94.08 76.544-170.667 170.667-170.667s170.667 76.587 170.667 170.667-76.544 170.667-170.667 170.667zM853.333 938.666c47.061 0 85.333-38.229 85.333-85.333s-38.272-85.333-85.333-85.333-85.333 38.229-85.333 85.333 38.272 85.333 85.333 85.333zM213.333 383.999c-70.571 0-128 57.429-128 128s57.429 128 128 128 128-57.429 128-128-57.429-128-128-128zM853.333 85.332c-47.061 0-85.333 38.229-85.333 85.333s38.272 85.333 85.333 85.333 85.333-38.229 85.333-85.333-38.272-85.333-85.333-85.333z" />
<glyph unicode="&#xf2a2;" d="M512 0c282.77 0 512 229.23 512 512s-229.23 512-512 512-512-229.23-512-512 229.23-512 512-512zM512 928c229.75 0 416-186.25 416-416s-186.25-416-416-416-416 186.25-416 416 186.25 416 416 416zM256 704c0 35.346 28.654 64 64 64s64-28.654 64-64c0-35.346-28.654-64-64-64-35.346 0-64 28.654-64 64zM640 704c0 35.346 28.654 64 64 64s64-28.654 64-64c0-35.346-28.654-64-64-64-35.346 0-64 28.654-64 64zM704.098 396.74l82.328-49.396c-55.962-93.07-157.916-155.344-274.426-155.344s-218.464 62.274-274.426 155.344l82.328 49.396c39.174-65.148 110.542-108.74 192.098-108.74s152.924 43.592 192.098 108.74z" />
<glyph unicode="&#xf2bf;" d="M535.881 1023.999c-279.425 0-420.326-200.353-420.326-367.414 0-101.267 38.379-191.171 120.423-224.662 13.542-5.549 25.564-0.265 29.461 14.598 2.708 10.372 9.116 36.531 12.022 47.363 4.03 14.598 2.445 19.817-8.39 32.699-23.714 27.876-38.842 64.208-38.842 115.404 0 148.63 111.175 281.671 289.598 281.671 158.011 0 244.811-96.642 244.811-225.39 0-169.637-75.108-312.718-186.548-312.718-61.565 0-107.608 50.864-92.812 113.289 17.704 74.645 51.921 155.038 51.921 208.743 0 48.156-25.894 88.254-79.269 88.254-62.888 0-113.487-65.001-113.487-152.197 0-55.555 18.893-93.075 18.893-93.075s-64.473-272.753-75.702-320.513c-22.46-95.123-3.369-211.781-1.652-223.606 0.859-6.87 9.842-8.653 13.872-3.369 5.814 7.597 80.788 100.209 106.154 192.558 7.332 26.159 41.418 161.511 41.418 161.511 20.543-38.909 80.129-73.193 143.676-73.193 189.124 0 317.342 172.279 317.342 403.152-0.198 174.393-147.969 336.895-372.566 336.895z" />
<glyph unicode="&#xf316;" d="M320 992v-73.896l-167.616-23.556 10.888-77.48-163.272-46.818 211.69-738.25 652.066 186.976 35.74 5.024h124.504v768h-704zM251.456 103.74l-179.716 626.742 99.686 28.584 87.844-625.044 191.794 26.958-199.608-57.24zM308.632 199.53l-90.74 645.656 102.108 14.348v-635.534h162.75l-174.118-24.47zM384 288v640h576v-160l-45.256 45.252-274.744-242.742-146.746 114.744-58.508-58.51 205.254-237.254 320 350.728v-452.218h-576z" />
<glyph unicode="&#xf32e;" d="M1024 626.95l-353.78 51.408-158.22 320.582-158.216-320.582-353.784-51.408 256-249.538-60.432-352.352 316.432 166.358 316.432-166.358-60.434 352.352 256.002 249.538z" />
<glyph unicode="&#xf341;" d="M777.863 21.097c-12.264 0-24.255 2.737-35.37 7.993-1.916 0.766-3.778 1.698-5.694 2.792l-224.865 128.283-224.865-128.338c-1.916-1.095-3.833-2.026-5.804-2.901-26.718-12.483-59.405-9.527-83.277 7.829-25.679 18.616-38.38 51.083-32.085 82.62l52.397 254.158c-20.477 18.616-52.671 47.907-87.712 79.773l-103.754 94.447c-1.478 1.369-3.012 2.901-4.271 4.49-20.532 21.682-27.868 53.11-18.616 81.69 9.472 28.689 33.946 49.934 63.511 55.245 1.862 0.438 3.669 0.766 5.585 0.986l257.388 28.525 106.546 235.979c0.93 2.08 1.971 4.106 3.285 6.022 14.345 25.897 41.83 42.214 71.67 42.214 29.73 0 57.161-16.316 71.67-42.158 1.15-1.971 2.244-3.997 3.285-6.133l106.657-236.09 257.388-28.525c1.862-0.164 3.723-0.493 5.694-0.93 29.511-5.476 53.985-26.609 63.402-55.409 9.307-28.525 1.916-60.117-18.616-81.799-1.314-1.423-2.792-2.957-4.271-4.271l-191.521-174.33 52.397-253.61c6.187-32.139-6.461-64.497-32.303-83.168-13.797-9.964-30.442-15.385-47.853-15.385zM331.692 380.488c-2.135-9.964-25.515-122.972-46.265-223.496l199.461 113.72c16.809 9.582 37.45 9.582 54.204 0l199.461-113.609-46.484 224.701c-3.887 18.944 2.464 38.6 16.863 51.576l169.731 154.509-228.205 25.24c-19.218 2.135-35.808 14.235-43.856 31.975l-94.611 209.206-94.502-209.206c-7.993-17.63-24.638-29.73-43.856-31.975l-228.205-25.24 169.731-154.509c14.892-13.469 21.025-33.781 16.535-52.89z" />
<glyph unicode="&#xf352;" d="M896 640q0 17.333-12.666 30t-30 12.666-30-12.666-12.666-30 12.666-30 30-12.666 30 12.666 12.666 30zM981.333 640q0-41.334-23.667-74t-61.666-46.667v-263.333q0-106-87.667-181t-211-75-211 75-87.667 181v88q-109.333 13.334-182.666 85.333t-73.333 168v341.333q0 17.333 12.666 30t30 12.666q4 0 10.667-1.333 11.333 20 31.333 32t43.333 12q35.334 0 60.333-25t25-60.333-25-60.333-60.333-25q-22 0-42.666 12v-267.999q0-70.666 62.666-120.667t150.667-50 150.667 50 62.666 120.667v267.999q-20.666-12-42.666-12-35.334 0-60.333 25t-25 60.333 25 60.333 60.333 25q23.333 0 43.333-12t31.333-32q6.666 1.333 10.667 1.333 17.333 0 30-12.666t12.666-30v-341.333q0-96-73.333-168t-182.666-85.333v-88q0-70.666 62.666-120.667t150.667-50 150.667 50 62.666 120.667v263.333q-37.999 14-61.666 46.667t-23.667 74q0 53.333 37.333 90.666t90.666 37.333 90.666-37.333 37.333-90.666z" />
<glyph unicode="&#xf438;" d="M999 24.5q-25-24.5-60-24.5t-59 25l-868 863q-12 12-12 29.5t12.5 30 30 12.5 29.5-12l29-29q4 7 7 10l83 83q11 11 27 11t27.5-11.5 11.5-27.5-12-27l-82-83q-3-3-10-7l12-12q4 7 7 10l83 83q11 11 27 11t27.5-11.5 11.5-27.5-12-27l-82-83q-3-3-10-6l12-13q4 7 7 10l83 83q11 11 27 11t27.5-11.5 11.5-27.5-12-27l-82-83q-3-3-10-6l60-60q56-56 106.5-97.5t86.5-64 76.5-47.5 76.5-47.5 86.5-64 106.5-96.5l119-119q25-25 25-60t-25-59.5z" />
<glyph unicode="&#xf833;" d="M467.48 279.464v-101.376h89.043v101.376c26.535 15.449 44.522 43.809 44.522 76.711 0 49.152-39.891 89.043-89.043 89.043s-89.043-39.891-89.043-89.043c0-32.857 17.986-61.262 44.522-76.711zM823.655 623.304v178.087c0 89.043-89.043 222.608-311.653 222.608s-311.653-133.565-311.653-222.608v-311.653h89.043v356.174c0 0 44.522 89.043 222.608 89.043s222.608-89.043 222.608-89.043v-222.608h-356.174v-89.043h445.218v-400.696c0-24.531-19.946-44.522-44.522-44.522h-534.261c-24.576 0-44.522 19.99-44.522 44.522v267.131h-89.043v-267.131c0-73.639 59.926-133.565 133.565-133.565h534.261c73.639 0 133.565 59.926 133.565 133.565v489.739h-89.043z" />
<glyph unicode="&#xf855;" d="M256 704c0 141.385 114.615 256 256 256s256-114.615 256-256c0-141.385-114.615-256-256-256-141.385 0-256 114.615-256 256zM768 384h-512c-141.384 0-256-114.618-256-256v-64h1024v64c0 141.382-114.616 256-256 256z" />
<glyph unicode="&#xf883;" d="M832 32v64h-640v-64h-192v960h192v-64h640v64h192v-960h-192zM128 928h-64v-64h64v64zM128 800h-64v-64h64v64zM128 672h-64v-64h64v64zM128 544h-64v-64h64v64zM128 416h-64v-64h64v64zM128 288h-64v-64h64v64zM128 160h-64v-64h64v64zM832 864h-640v-704h640v704zM960 928h-64v-64h64v64zM960 800h-64v-64h64v64zM960 672h-64v-64h64v64zM960 544h-64v-64h64v64zM960 416h-64v-64h64v64zM960 288h-64v-64h64v64zM960 160h-64v-64h64v64zM384 352v320l256-160z" />
<glyph unicode="&#xf923;" d="M840.873 0c0 0 0 0 0 0-25.362 0-49.568 11.272-66.414 30.924l-354.149 413.175c-37.218-15.82-77.642-24.1-118.312-24.1-166.524 0-301.999 135.476-301.999 301.999 0 29.816 4.36 59.322 12.956 87.698l15.486 51.116 193.757-193.757c5.242-5.242 12.274-8.128 19.8-8.128s14.558 2.886 19.8 8.128l95.146 95.148c10.916 10.916 10.916 28.682 0 39.6l-193.757 193.751 51.114 15.488c28.374 8.596 57.88 12.956 87.698 12.956 166.524 0 301.999-135.478 301.999-301.999 0-40.662-8.28-81.086-24.1-118.31l413.175-354.149c18.962-16.256 29.922-38.67 30.862-63.114 0.938-24.442-8.272-47.626-25.932-65.286l-95.148-95.148c-16.76-16.762-38.774-25.992-61.982-25.992zM436.275 523.816l386.779-451.241c4.74-5.532 11.068-8.576 17.822-8.576 4.324 0 10.736 1.258 16.726 7.246l95.148 95.15c4.91 4.91 7.478 11.152 7.232 17.576-0.248 6.426-3.288 12.454-8.56 16.974l-451.235 386.775 12.048 22.64c18.162 34.13 27.764 72.734 27.764 111.638 0 131.234-106.766 237.999-237.999 237.999-4.152 0-8.294-0.108-12.426-0.32l112.626-112.626c35.87-35.872 35.87-94.238 0-130.108l-95.146-95.146c-17.33-17.33-40.432-26.874-65.054-26.874-24.62 0-47.724 9.544-65.054 26.874l-112.626 112.624c-0.212-4.132-0.32-8.274-0.32-12.424 0-131.234 106.766-237.999 237.999-237.999 38.912 0 77.514 9.602 111.634 27.764l22.642 12.054z" />
<glyph unicode="&#xf927;" d="M589.327 513.133l285.367-400.112q20.953-27.938 20.953-46.896 0-26.94-18.958-45.399t-44.9-18.459q-6.984 0-13.47 0.998t-11.475 3.492-8.481 4.49-7.982 5.987-5.488 5.488-4.989 6.486l-3.991 4.989-264.413 369.181-263.415-369.181-3.991-4.989t-4.989-6.486-5.488-5.488-7.982-5.987-8.98-4.49-11.475-3.492-12.971-0.998q-25.942 0-44.9 18.459t-18.958 45.399q0 18.958 20.953 46.896l285.367 400.112-290.355 406.099q-0.998 0.998-3.991 5.488t-4.49 6.486-3.492 6.486-2.494 9.978-0.499 12.472q0 25.942 18.459 44.9t45.399 18.958q37.916 0 55.876-33.925l262.418-368.183 263.415 368.183q17.96 33.925 55.876 33.925 26.94 0 45.399-18.958t18.459-44.9q0-6.984-0.499-12.472t-2.494-9.978-3.492-6.486-4.49-6.486-3.991-5.488z" />
<glyph unicode="&#xf93a;" d="M628 313.143v-120.571q0-38.286-22.286-38.286-13.143 0-25.714 12.571v172q12.571 12.571 25.714 12.571 22.286 0 22.286-38.286zM821.142 312.571v-26.286h-51.429v26.286q0 38.857 25.714 38.857t25.714-38.857zM269.143 437.143h61.143v53.714h-178.286v-53.714h60v-325.143h57.143v325.143zM433.714 112h50.857v282.286h-50.857v-216q-17.143-24-32.571-24-10.286 0-12 12-0.571 1.714-0.571 20v208h-50.857v-223.429q0-28 4.571-41.714 6.857-21.143 33.143-21.143 27.429 0 58.286 34.857v-30.857zM678.857 196.571v112.571q0 41.714-5.143 56.571-9.714 32-40.571 32-28.571 0-53.143-30.857v124h-50.857v-378.857h50.857v27.429q25.714-31.429 53.143-31.429 30.857 0 40.571 31.429 5.143 15.429 5.143 57.143zM872 202.286v7.429h-52q0-29.143-1.143-34.857-4-20.571-22.857-20.571-26.286 0-26.286 39.429v49.714h102.286v58.857q0 45.143-15.429 66.286-22.286 29.143-60.571 29.143-38.857 0-61.143-29.143-16-21.143-16-66.286v-98.857q0-45.143 16.571-66.286 22.286-29.143 61.714-29.143 41.143 0 61.714 30.286 10.286 15.429 12 30.857 1.143 5.143 1.143 33.143zM524.572 724v120q0 39.429-24.571 39.429t-24.571-39.429v-120q0-40 24.571-40t24.571 40zM935.428 294.857q0-133.714-14.857-200-8-33.714-33.143-56.571t-58.286-26.286q-105.143-12-317.143-12t-317.143 12q-33.143 3.429-58.571 26.286t-32.857 56.571q-14.857 64-14.857 200 0 133.714 14.857 200 8 33.714 33.143 56.571t58.857 26.857q104.571 11.429 316.571 11.429t317.143-11.429q33.143-4 58.571-26.857t32.857-56.571q14.857-64 14.857-200zM365.143 1024h58.286l-69.143-228v-154.857h-57.143v154.857q-8 42.286-34.857 121.143-21.143 58.857-37.143 106.857h60.571l40.571-150.286zM576.572 833.714v-100q0-46.286-16-67.429-21.143-29.143-60.571-29.143-38.286 0-60 29.143-16 21.714-16 67.429v100q0 45.714 16 66.857 21.714 29.143 60 29.143 39.429 0 60.571-29.143 16-21.143 16-66.857zM768 926.286v-285.143h-52v31.429q-30.286-35.429-58.857-35.429-26.286 0-33.714 21.143-4.571 13.714-4.571 42.857v225.143h52v-209.714q0-18.857 0.571-20 1.714-12.571 12-12.571 15.429 0 32.571 24.571v217.714h52z" />
<glyph unicode="&#xf93b;" d="M928 160q-222-32-416-32-86 0-190 8t-165 16l-61 8q-27 5-47.5 37.5t-30 78.5-14 86-4.5 73v154q0 255 96 275 222 32 416 32 86 0 190-8t165-16l61-8q29-4 49.5-36.5t29.5-79.5 13-86 4-73v-154q0-36-3-73t-12-85-30-80-51-37zM693 537l-262 160q-11 10-29 5.5t-18-14.5v-352q0-11 18-15t29 6l262 160q11 10 11 25t-11 25z" />
<glyph unicode="&#xf979;" d="M1024 511.995L557.917 45.912l-13.912 13.912l452.172 452.172L544.005 964.176L557.917 978.088L1024 511.995zM984.96 521.833H0v-19.677h984.96V521.833z" />
</font>
</defs>
</svg>
